<svg xmlns="http://www.w3.org/2000/svg" viewBox="0 0 64 64" style="enable-background:new 0 0 64 64" xml:space="preserve">
  <path d="M6 12c0-3.3 2.7-6 6-6h40c3.3 0 6 2.7 6 6v40c0 3.3-2.7 6-6 6H12c-3.3 0-6-2.7-6-6V12z" style="fill:#57cef3"/>
  <path d="M8 12c0-2.2 1.8-4 4-4h10V4H12c-4.4 0-8 3.6-8 8v40c0 4.4 3.6 8 8 8h34v-2h6c3.3 0 6-2.7 6-6V32h-2c0 11-14.3 20-32 20-8.8 0-16-2.7-16-6V12z" style="fill:#0779e4"/>
  <path d="M20 4h32c4.4 0 8 3.6 8 8v40c0 4.4-3.6 8-8 8h-8v-4h8c2.2 0 4-1.8 4-4V12c0-2.2-1.8-4-4-4H20V4z" style="fill-rule:evenodd;clip-rule:evenodd;fill:#314a52"/>
  <path d="m44 40-.5.5C41.3 42.7 38.2 44 35 44H14c-1.1 0-2-.9-2-2v-4c0-1.1.9-2 2-2h21c3.2 0 6.2 1.3 8.5 3.5l.5.5zm1.8-25.8c-1.1 1.1-1.8 2.7-1.8 4.2V26c0 1.1.9 2 2 2h4c1.1 0 2-.9 2-2v-7.5c0-1.6-.6-3.1-1.8-4.2L48 12l-2.2 2.2zM12 16l.5.5c2.3 2.3 5.3 3.5 8.5 3.5h13c1.1 0 2-.9 2-2v-4c0-1.1-.9-2-2-2H21c-3.2 0-6.2 1.3-8.5 3.5l-.5.5z" style="fill:#597380"/>
  <path d="M32 16c0 1.1-.9 2-2 2s-2-.9-2-2 .9-2 2-2 2 .9 2 2zm16 0c-1.1 0-2 .9-2 2s.9 2 2 2 2-.9 2-2-.9-2-2-2zM26 38c-1.1 0-2 .9-2 2s.9 2 2 2 2-.9 2-2-.9-2-2-2zm-8 0c-1.1 0-2 .9-2 2s.9 2 2 2 2-.9 2-2-.9-2-2-2z" style="fill:#ff6c58"/>
  <path d="M32 26c0 1.1-.9 2-2 2s-2-.9-2-2 .9-2 2-2 2 .9 2 2zm-10-2c-1.1 0-2 .9-2 2s.9 2 2 2 2-.9 2-2-.9-2-2-2zm28 8c-1.1 0-2 .9-2 2s.9 2 2 2 2-.9 2-2-.9-2-2-2zm0 16c-1.1 0-2 .9-2 2s.9 2 2 2 2-.9 2-2-.9-2-2-2z" style="fill:#fff"/>
</svg>
